<?xml version="1.0" encoding="UTF-8"?>
<svg width="419px" height="535px" viewBox="0 0 419 535" version="1.1" xmlns="http://www.w3.org/2000/svg" xmlns:xlink="http://www.w3.org/1999/xlink">
    <!-- Generator: Sketch 52.5 (67469) - http://www.bohemiancoding.com/sketch -->
    <title>Combined Shape</title>
    <desc>Created with Sketch.</desc>
    <g id="Page-1" stroke="none" stroke-width="1" fill="none" fill-rule="evenodd">
        <g id="Artboard" transform="translate(-114.000000, -56.000000)" fill="#6F4E37">
            <path d="M188.11418,475.164601 C197.739614,467.609847 206.821467,460.074135 212.410821,454.70597 C238.833644,429.328768 251.202305,399.350648 246.698631,371.602038 C244.161321,355.968654 244.888116,354.938751 264.443316,346.458711 C275.657973,341.595464 289.91498,332.124687 296.125487,325.41255 C302.33604,318.70046 311.038957,313.2087 315.465312,313.2087 C324.313039,313.2087 333.74005,334.717863 333.74005,354.905174 C333.74005,370.002439 354.942185,404.33591 379.017547,428.224911 C388.83362,437.965004 399.384826,451.697247 402.464672,458.741011 C405.544517,465.784775 417.57959,477.578247 417.57959,484.948749 C417.57959,490.357556 419.272737,496.449661 421.692629,500.569512 C425.648428,508.947203 427.06339,521.120475 421.928118,527.053161 C370.378582,586.607395 314.648221,599.579227 261.014093,586.190138 C248.797683,583.140464 234.107651,567.453972 219.964349,561.43885 C200.688231,553.240749 182.347949,551.869761 170.128156,543.075278 C158.044002,534.378414 168.414967,491.894437 188.11418,475.164601 Z M166.88066,468.339625 C156.427978,480.199868 129.395934,496.786003 122.908539,474.566438 C108.38212,424.81292 109.579924,362.857401 141.886921,276.492226 C207.20945,101.867778 292.297896,38.6590221 374.906341,59.9814583 C395.206388,65.2211946 396.503032,88.6264052 383.440498,103.947883 C382.666285,104.682035 381.926268,105.427328 381.231377,106.176623 C375.103405,112.784348 365.114157,120.08206 359.033042,122.393719 C345.283171,127.620587 335.805111,149.616038 331.565904,186.135986 C329.106471,207.323395 324.407917,219.685818 312.393059,236.582422 C302.680528,250.241176 296.450225,264.542974 296.406722,273.279384 C296.31203,292.282457 293.235305,296.114265 268.531519,307.995755 C212.382176,335.001197 206.990082,342.101125 210.881914,383.90471 L213.778337,415.015979 L190.734946,439.789118 C181.974424,449.207274 173.755089,459.118459 166.88066,468.339625 Z M398.756741,131.711512 C398.883988,131.429553 399.003685,131.128691 399.115351,130.80834 C403.730784,117.567494 435.671134,85.9006944 456.192181,95.2935655 C538.571219,137.06452 557.254067,215.21593 499.720888,379.072882 C483.272813,425.917702 466.219506,464.567415 446.414061,493.384186 C442.39543,499.231264 432.059769,495.655604 430.848742,488.508144 C430.837887,488.444079 430.826212,488.3816 430.813734,488.320688 C423.468654,442.865173 409.914132,453.901958 385.242819,391.497073 C362.655422,358.636203 360.048991,352.204932 357.33911,322.644921 C355.69511,304.711895 351.808775,287.498519 348.702799,284.393023 C339.50509,275.196731 342.229223,248.953972 354.699935,226.620281 C361.104344,215.150658 366.344315,198.512007 366.344315,189.64548 C366.344315,177.762732 370.630146,168.781316 382.646448,155.482783 C390.765049,146.497869 397.547077,136.403924 398.75674,131.711514 Z" id="Combined-Shape"></path>
        </g>
    </g>
</svg>