<svg xmlns="http://www.w3.org/2000/svg" xmlns:xlink="http://www.w3.org/1999/xlink" width="114" height="56" viewBox="0 0 114 56"><defs><clipPath id="b"><rect width="114" height="56"/></clipPath></defs><g id="a" clip-path="url(#b)"><rect width="114" height="56" fill="#fff"/><path d="M154.214,120.611h114v56h-114Z" transform="translate(-154.214 -120.611)" fill="#00a9c5"/><path d="M595.376,462.451a13.311,13.311,0,0,1-9.66-3.533,13.7,13.7,0,0,1,0-18.629,13.323,13.323,0,0,1,9.66-3.525,13.645,13.645,0,0,1,8.5,2.6,11.24,11.24,0,0,1,4.3,7.074q.1.836-.768.836H602.2a.891.891,0,0,1-.921-.666,5.786,5.786,0,0,0-2.168-3,7,7,0,0,0-8.508.9,8.037,8.037,0,0,0,0,10.223,6.388,6.388,0,0,0,4.839,1.92,6.264,6.264,0,0,0,3.652-1.05,5.8,5.8,0,0,0,2.185-2.979.88.88,0,0,1,.921-.7h5.206q.87,0,.768.854a11.228,11.228,0,0,1-4.284,7.091A13.707,13.707,0,0,1,595.376,462.451Z" transform="translate(-575.714 -418.458)" fill="#fff"/><path d="M640.637,461.853a.859.859,0,0,1-.572-.23.729.729,0,0,1-.264-.572V438.2c0-.535.278-.807.836-.819h17.34a.716.716,0,0,1,.8.819v3.7q0,.77-.8.769H646.406v5.274h9.711c.557,0,.837.267.837.8v3.6c0,.535-.28.8-.837.8h-9.711v7.9a.709.709,0,0,1-.8.8Z" transform="translate(-575.714 -418.458)" fill="#fff"/><path d="M681.326,441.9q0,.77-.8.769h-11.81v4.437h9.916q.835,0,.853.768v3.635q0,.77-.853.769h-9.916v4.3h11.81q.8,0,.8.768v3.7a.709.709,0,0,1-.8.8H662.944q-.837,0-.836-.8V438.2c0-.535.278-.807.836-.819h17.579a.717.717,0,0,1,.8.819Z" transform="translate(-575.714 -418.458)" fill="#fff"/><path d="M636.214,460.895l-9.958-22.761,5.473-12.858.008-.02-.008-.021a1,1,0,0,0-1-.627H625.81a1.021,1.021,0,0,0-1,.627l-7.706,17.6a1.156,1.156,0,0,0-.073.208l-7.824,17.852a1.027,1.027,0,0,0-.083.275l-2.773,6.335a.729.729,0,0,0-.014.723.744.744,0,0,0,.675.288h5.358a1.007,1.007,0,0,0,.987-.662l2.693-6.328a1.346,1.346,0,0,0,.163-.282l6.49-14.573,6.522,14.57a.967.967,0,0,0,.987.665h5.325a.758.758,0,0,0,.665-.278A.746.746,0,0,0,636.214,460.895Z" transform="translate(-575.714 -418.458)" fill="#171717"/><g transform="translate(-4.7 4.579)"><rect width="420.39" height="297.429" transform="translate(-149.5 -114.729)" fill="#171717"/><path d="M595.376,154.435a13.311,13.311,0,0,1-9.66-3.532,13.7,13.7,0,0,1,0-18.629,13.323,13.323,0,0,1,9.66-3.525,13.645,13.645,0,0,1,8.5,2.6,11.24,11.24,0,0,1,4.3,7.074q.1.835-.768.836H602.2a.891.891,0,0,1-.921-.666,5.787,5.787,0,0,0-2.168-3,7,7,0,0,0-8.508.9,8.037,8.037,0,0,0,0,10.223,6.388,6.388,0,0,0,4.839,1.92,6.264,6.264,0,0,0,3.652-1.05,5.8,5.8,0,0,0,2.185-2.979.88.88,0,0,1,.921-.7h5.206q.87,0,.768.854a11.228,11.228,0,0,1-4.284,7.091A13.706,13.706,0,0,1,595.376,154.435Z" transform="translate(-571 -115)" fill="#fff"/><path d="M640.637,153.838a.859.859,0,0,1-.572-.23.729.729,0,0,1-.264-.572V130.183a.74.74,0,0,1,.836-.819h17.34a.716.716,0,0,1,.8.819v3.7q0,.77-.8.769H646.406v5.274h9.711c.557,0,.837.267.837.8v3.6c0,.535-.28.8-.837.8h-9.711v7.9a.709.709,0,0,1-.8.8Z" transform="translate(-571 -115)" fill="#fff"/><path d="M681.326,133.886q0,.77-.8.769h-11.81v4.437h9.916q.835,0,.853.768v3.635q0,.77-.853.769h-9.916v4.3h11.81q.8,0,.8.768v3.7a.709.709,0,0,1-.8.8H662.944q-.837,0-.836-.8V130.183a.74.74,0,0,1,.836-.819h17.579a.717.717,0,0,1,.8.819Z" transform="translate(-571 -115)" fill="#fff"/><path d="M636.214,152.88l-9.958-22.761,5.473-12.858.008-.02-.008-.021a1,1,0,0,0-1-.627H625.81a1.021,1.021,0,0,0-1,.627l-7.706,17.6a1.156,1.156,0,0,0-.073.208l-7.824,17.852a1.027,1.027,0,0,0-.083.275l-2.773,6.335a.729.729,0,0,0-.014.723.744.744,0,0,0,.675.288h5.358a1.007,1.007,0,0,0,.987-.662l2.693-6.329a1.313,1.313,0,0,0,.163-.281l6.49-14.573,6.522,14.57a.967.967,0,0,0,.987.665h5.325a.758.758,0,0,0,.665-.278A.746.746,0,0,0,636.214,152.88Z" transform="translate(-571 -115)" fill="#00a9c5"/></g></g></svg>